<?xml version="1.0" standalone="no"?>
<!DOCTYPE svg PUBLIC "-//W3C//DTD SVG 20010904//EN"
 "http://www.w3.org/TR/2001/REC-SVG-20010904/DTD/svg10.dtd">
<svg version="1.0" xmlns="http://www.w3.org/2000/svg"
 width="260.000000pt" height="260.000000pt" viewBox="0 0 260.000000 260.000000"
 preserveAspectRatio="xMidYMid meet">
<metadata>
Created by potrace 1.14, written by Peter Selinger 2001-2017
</metadata>
<g transform="translate(0.000000,260.000000) scale(0.100000,-0.100000)"
fill="#000000" stroke="none">
<path d="M105 2251 c-37 -11 -73 -42 -89 -76 -14 -29 -16 -127 -16 -874 0
-925 -3 -886 61 -932 l34 -24 1197 -1 1196 -1 38 21 c78 44 72 -21 73 929 1
932 4 892 -60 938 l-34 24 -1190 1 c-655 0 -1199 -2 -1210 -5z m317 -157 c15
-14 18 -32 18 -109 0 -116 -3 -118 -117 -120 -127 -2 -131 3 -124 198 1 36 24
44 125 46 61 1 83 -3 98 -15z m492 0 c23 -22 23 -196 0 -215 -9 -8 -47 -13
-101 -14 -119 -2 -124 3 -124 123 0 117 2 120 122 121 68 1 91 -2 103 -15z
m491 0 c17 -18 17 -15 16 -118 0 -106 -5 -110 -121 -110 -110 -1 -119 6 -121
89 -3 152 -3 152 120 153 69 1 94 -2 106 -14z m490 0 c15 -16 18 -35 16 -139
-1 -81 -11 -89 -114 -91 -121 -2 -127 4 -127 121 0 68 4 97 14 108 22 21 190
22 211 1z m489 0 c16 -15 18 -34 18 -143 0 -78 -12 -86 -122 -85 -57 0 -95 5
-104 14 -23 19 -23 186 1 212 22 25 183 27 207 2z m-1959 -1374 c11 -9 15 -35
15 -105 0 -118 -4 -122 -123 -123 -91 0 -116 10 -118 46 0 9 -1 46 -3 82 -2
72 6 98 35 108 32 12 177 6 194 -8z m490 0 c11 -9 15 -34 15 -104 0 -50 -4
-97 -9 -105 -15 -23 -193 -28 -215 -6 -17 18 -18 24 -17 130 1 94 10 101 124
100 53 -1 92 -7 102 -15z m490 -1 c15 -14 19 -57 16 -161 -2 -56 -17 -65 -119
-67 -124 -2 -125 -1 -124 149 2 88 12 96 126 95 62 -1 91 -5 101 -16z m491 -1
c15 -15 17 -38 15 -148 -2 -71 -7 -74 -115 -77 -124 -3 -126 -1 -126 122 0
118 4 121 124 120 64 0 90 -5 102 -17z m490 1 c10 -10 15 -38 15 -85 2 -142 3
-141 -120 -142 -119 0 -123 4 -119 129 3 84 5 95 24 104 33 16 182 11 200 -6z"/>
</g>
</svg>
