<svg xmlns="http://www.w3.org/2000/svg" xml:space="preserve" viewBox="0 0 100 100"><linearGradient id="a" x1="-23.8" x2="-23.8" y1="39.6" y2="108.9" gradientTransform="matrix(1.6 0 0 -1.6 87.2 146.6)" gradientUnits="userSpaceOnUse"><stop offset="0" stop-color="#155cde"/><stop offset=".3" stop-color="#1f7fe5"/><stop offset=".6" stop-color="#279ceb"/><stop offset=".8" stop-color="#2cafef"/><stop offset="1" stop-color="#2eb5f0"/></linearGradient><path fill="url(#a)" d="M94.3 13.2H5.7A5.7 5.7 0 0 0 0 18.9v62.3c0 3.1 2.5 5.7 5.7 5.7h88.7c3.1 0 5.7-2.5 5.7-5.7V18.9a5.8 5.8 0 0 0-5.8-5.7zM17 79.2c0 1-.8 1.9-1.9 1.9H9.4c-1 0-1.9-.8-1.9-1.9v-5.7c0-1 .8-1.9 1.9-1.9h5.7c1 0 1.9.8 1.9 1.9v5.7zm0-52.8c0 1-.8 1.9-1.9 1.9H9.4c-1 0-1.9-.8-1.9-1.9v-5.7c0-1 .8-1.9 1.9-1.9h5.7c1 0 1.9.8 1.9 1.9v5.7zm18.8 52.8c0 1-.8 1.9-1.9 1.9h-5.7c-1 0-1.9-.8-1.9-1.9v-5.7c0-1 .8-1.9 1.9-1.9H34c1 0 1.9.8 1.9 1.9v5.7zm0-52.8c0 1-.8 1.9-1.9 1.9h-5.7c-1 0-1.9-.8-1.9-1.9v-5.7c0-1 .8-1.9 1.9-1.9H34c1 0 1.9.8 1.9 1.9v5.7zm18.9 52.8c0 1-.8 1.9-1.9 1.9h-5.7c-1 0-1.9-.8-1.9-1.9v-5.7c0-1 .8-1.9 1.9-1.9h5.7c1 0 1.9.8 1.9 1.9v5.7zm0-52.8c0 1-.8 1.9-1.9 1.9h-5.7c-1 0-1.9-.8-1.9-1.9v-5.7c0-1 .8-1.9 1.9-1.9h5.7c1 0 1.9.8 1.9 1.9v5.7zm18.9 52.8c0 1-.8 1.9-1.9 1.9H66c-1 0-1.9-.8-1.9-1.9v-5.7c0-1 .8-1.9 1.9-1.9h5.7c1 0 1.9.8 1.9 1.9v5.7zm0-52.8c0 1-.8 1.9-1.9 1.9H66c-1 0-1.9-.8-1.9-1.9v-5.7c0-1 .8-1.9 1.9-1.9h5.7c1 0 1.9.8 1.9 1.9v5.7zm18.9 52.8c0 1-.8 1.9-1.9 1.9h-5.7c-1 0-1.9-.8-1.9-1.9v-5.7c0-1 .8-1.9 1.9-1.9h5.7c1 0 1.9.8 1.9 1.9v5.7zm0-52.8c0 1-.8 1.9-1.9 1.9h-5.7c-1 0-1.9-.8-1.9-1.9v-5.7c0-1 .8-1.9 1.9-1.9h5.7c1 0 1.9.8 1.9 1.9v5.7z"/></svg>
